<svg width="16" height="17" viewBox="0 0 16 17" fill="none" xmlns="http://www.w3.org/2000/svg">
<circle cx="8" cy="8.5" r="8" fill="black"/>
<path d="M5.12109 12.5178V4.33862H8.19693C8.86509 4.33862 9.43725 4.5767 9.91341 5.05286C10.3896 5.52134 10.6277 6.0935 10.6277 6.76934C10.6277 7.31462 10.4318 7.7831 10.0401 8.17478C10.3934 8.3591 10.6737 8.62022 10.8811 8.95814C11.0961 9.29606 11.2037 9.68006 11.2037 10.1101C11.2037 10.786 10.9656 11.3581 10.4894 11.8266C10.0133 12.2874 9.42189 12.5178 8.71533 12.5178H5.12109ZM6.95277 10.8359H8.56557C8.81133 10.8359 9.01485 10.7591 9.17613 10.6055C9.33741 10.4442 9.41805 10.2484 9.41805 10.018C9.41805 9.78758 9.33357 9.59558 9.16461 9.44198C9.00333 9.2807 8.79981 9.20006 8.55405 9.20006H6.95277V10.8359ZM6.95277 7.64486H7.98957C8.23533 7.64486 8.43885 7.56806 8.60013 7.41446C8.76141 7.26086 8.84205 7.06886 8.84205 6.83846C8.84205 6.60806 8.76141 6.41222 8.60013 6.25094C8.43885 6.08966 8.23533 6.00902 7.98957 6.00902H6.95277V7.64486Z" fill="white"/>
</svg>
